<svg id="图层_1" data-name="图层 1" xmlns="http://www.w3.org/2000/svg" xmlns:xlink="http://www.w3.org/1999/xlink" viewBox="0 0 319 319"><defs><style>.cls-1{fill:url(#未命名的渐变_103);}.cls-2{fill:#6c5547;}.cls-3{fill:#58463c;}.cls-4{fill:#eaf1f9;}.cls-5{fill:#dbe7f5;}.cls-6{fill:#040000;}.cls-7{opacity:0.35;}</style><radialGradient id="未命名的渐变_103" cx="159.5" cy="159.5" r="159.5" gradientUnits="userSpaceOnUse"><stop offset="0" stop-color="#6c5547"/><stop offset="0.21" stop-color="#806043" stop-opacity="0.88"/><stop offset="0.58" stop-color="#b57e39" stop-opacity="0.56"/><stop offset="1" stop-color="#ffa82a" stop-opacity="0.1"/></radialGradient></defs><circle class="cls-1" cx="159.5" cy="159.5" r="159.5"/><path class="cls-2" d="M381.45,179.69a9.83,9.83,0,0,0-11,8.47A21.72,21.72,0,0,1,354,206.5a1.54,1.54,0,0,1-1.61-.58A80.88,80.88,0,0,0,290,173.06l-12-.41a1.66,1.66,0,0,1-1.31-.73l-11.92-18a8.7,8.7,0,0,0-14.15-.49l-13.13,17.13a1.64,1.64,0,0,1-1.35.64l-16.59-.57a81.48,81.48,0,0,0-15,.86,1.6,1.6,0,0,1-1.6-.7l-12.82-19.33a8.7,8.7,0,0,0-14.2-.42L157.2,183.33q-3.84,6.63-7.08,13.57a171.62,171.62,0,0,0-11.62,33.47l-.5,2.12a81.09,81.09,0,0,0,76,100.12l53.89,1.84a10.17,10.17,0,0,0,7.32-2.74l88.72-82.84a10.18,10.18,0,0,0,3.08-9.24,80.09,80.09,0,0,0-3.78-13.82,1.53,1.53,0,0,1,.88-1.95,41.48,41.48,0,0,0,25.84-33.16,9.82,9.82,0,0,0-8.47-11Z" transform="translate(-92 -79)"/><path class="cls-3" d="M381.45,179.69a9.83,9.83,0,0,0-11,8.47A21.72,21.72,0,0,1,354,206.5a1.54,1.54,0,0,1-1.61-.58A80.88,80.88,0,0,0,290,173.06l-12-.41a1.66,1.66,0,0,1-1.31-.73l-11.92-18a8.7,8.7,0,0,0-14.15-.49l-3,3.87,6.42,10.24a10.11,10.11,0,0,0,7.51,4.73,81.06,81.06,0,0,1,71.32,66.14,10.23,10.23,0,0,1-3.08,9.27l-88.72,82.84a10.17,10.17,0,0,1-7.32,2.74l34.1,1.17a10.17,10.17,0,0,0,7.32-2.74l88.72-82.84a10.18,10.18,0,0,0,3.08-9.24,80.09,80.09,0,0,0-3.78-13.82,1.53,1.53,0,0,1,.88-1.95,41.43,41.43,0,0,0,25.84-33.16,9.82,9.82,0,0,0-8.47-11Z" transform="translate(-92 -79)"/><path class="cls-4" d="M271.39,333.94a10.22,10.22,0,0,0,3.79-2.23l88.72-82.84a10.21,10.21,0,0,0,2.82-4.58,73.22,73.22,0,0,0-95.33,89.65Z" transform="translate(-92 -79)"/><path class="cls-5" d="M349.43,240.27l-.23.22-80.8,75.45a73,73,0,0,0,3,18,10.22,10.22,0,0,0,3.79-2.23l88.72-82.84a10.23,10.23,0,0,0,2.82-4.57,72.38,72.38,0,0,0-17.29-4Z" transform="translate(-92 -79)"/><path class="cls-6" d="M139.6,249a78.09,78.09,0,0,1,2.12-15.61l.5-2.12a169.39,169.39,0,0,1,4.95-16.95,29.82,29.82,0,0,1,3.56-.4,28.92,28.92,0,0,1,15.08,3.23,3.83,3.83,0,1,0,3.59-6.76,36.51,36.51,0,0,0-19.07-4.11h-.13c1.07-2.61,3.67-8.34,3.81-8.64a26.43,26.43,0,0,1,10.45,5.12,3.82,3.82,0,1,0,4.84-5.92,34.79,34.79,0,0,0-17.76-7.43,37.54,37.54,0,0,0-19.46,2.72,3.83,3.83,0,0,0,3,7A29.71,29.71,0,0,1,146,196.77c-1.65,3.62-3.18,7.31-4.59,11a35.51,35.51,0,0,0-9.58,4.52,3.83,3.83,0,1,0,4.27,6.35c.65-.43,1.32-.84,2-1.22q-1.86,6-3.29,12l-.49,2.09a85.13,85.13,0,0,0,12.46,68,3.83,3.83,0,1,0,6.31-4.33A76.62,76.62,0,0,1,139.6,249Z" transform="translate(-92 -79)"/><path class="cls-6" d="M158.61,180.92a3.83,3.83,0,0,0,5.23-1.39l15.27-26.32a4.82,4.82,0,0,1,3.92-1.79h0a4.83,4.83,0,0,1,3.89,2.18l12.82,19.32a5.48,5.48,0,0,0,5.36,2.38,78.21,78.21,0,0,1,14.27-.83L236,175a5.48,5.48,0,0,0,4.52-2.13l13.13-17.13a4.87,4.87,0,0,1,7.92.27l11.93,18a5.47,5.47,0,0,0,4.36,2.43l12,.42a77,77,0,0,1,39.68,12.57,3.83,3.83,0,0,0,4.2-6.4,84.67,84.67,0,0,0-43.62-13.82l-10.91-.38-11.3-17a12.53,12.53,0,0,0-20.37-.7l-12.45,16.23-15.45-.53a86.25,86.25,0,0,0-14.29.71l-12.05-18.17a12.57,12.57,0,0,0-10-5.59h-.06a12.52,12.52,0,0,0-10.37,5,2.26,2.26,0,0,0-.25.38l-15.41,26.54a3.84,3.84,0,0,0,1.39,5.24Z" transform="translate(-92 -79)"/><path class="cls-6" d="M391,181.11a13.52,13.52,0,0,0-9.06-5.22,13.69,13.69,0,0,0-15.31,11.78,17.81,17.81,0,0,1-12.08,14.71,85.05,85.05,0,0,0-7.13-8.15,3.83,3.83,0,1,0-5.43,5.39,78.18,78.18,0,0,1,7.36,8.58,5.36,5.36,0,0,0,5.6,2,25.42,25.42,0,0,0,19.27-21.56,6,6,0,1,1,11.91,1.55,37.59,37.59,0,0,1-23.47,30.09,5.4,5.4,0,0,0-3.05,6.84A77.25,77.25,0,0,1,363,239.05a77,77,0,0,0-96.44,91.53l-52.43-1.8a77,77,0,0,1-51.23-21.86,3.83,3.83,0,1,0-5.35,5.48,84.63,84.63,0,0,0,56.31,24l53.89,1.85a13.93,13.93,0,0,0,10.06-3.77l88.72-82.84A14,14,0,0,0,370.75,239a84.75,84.75,0,0,0-3.22-12.41,45,45,0,0,0,12.91-8.82,45.48,45.48,0,0,0,13.28-26.53A13.58,13.58,0,0,0,391,181.11ZM273.76,327.8a69.34,69.34,0,0,1,87.15-81.37l-6.66,6.21c-1.69-.35-3.4-.64-5.1-.85a3.82,3.82,0,0,0-1.86,7.35L287.51,315c0-1.26-.05-2.53,0-3.79,0-.54,0-1.08.08-1.61a3.83,3.83,0,0,0-7.64-.49c0,.61-.07,1.22-.09,1.84-.07,2.1,0,4.23.1,6.31a3.83,3.83,0,0,0,1.88,3Z" transform="translate(-92 -79)"/><path class="cls-6" d="M218.76,203.06a3.84,3.84,0,0,0-4,3.7l-.21,6.15a6,6,0,0,1-9.23-1.12,3.83,3.83,0,1,0-6.45,4.13,13.66,13.66,0,0,0,19.28,3.9,13.66,13.66,0,0,0,19.49-2.57,3.83,3.83,0,1,0-6.15-4.56,6,6,0,0,1-9.29.48l.21-6.15a3.83,3.83,0,0,0-3.69-4Z" transform="translate(-92 -79)"/><path class="cls-6" d="M184.12,198.78a5.12,5.12,0,1,0,5.29-4.93A5.12,5.12,0,0,0,184.12,198.78Z" transform="translate(-92 -79)"/><circle class="cls-6" cx="156.49" cy="121.99" r="5.12"/><path class="cls-6" d="M286.81,210.93a36.65,36.65,0,0,0-19.31,2.8,3.83,3.83,0,0,0,3.12,7,29.66,29.66,0,0,1,29.57,3.58,3.83,3.83,0,0,0,4.7-6,36.55,36.55,0,0,0-18.08-7.33Z" transform="translate(-92 -79)"/><path class="cls-6" d="M307.64,203.22a3.82,3.82,0,0,0-1.65-5.15,37.59,37.59,0,0,0-19.23-4,34.62,34.62,0,0,0-18.23,6.19,3.83,3.83,0,0,0,4.43,6.24,27,27,0,0,1,14.22-4.79,29.86,29.86,0,0,1,15.31,3.21A3.83,3.83,0,0,0,307.64,203.22Z" transform="translate(-92 -79)"/><path class="cls-6" d="M286.22,295.52a3.83,3.83,0,0,0,5-2.17,53.33,53.33,0,0,1,3-6.45,3.82,3.82,0,1,0-6.69-3.71,62.65,62.65,0,0,0-3.47,7.37,3.83,3.83,0,0,0,2.17,5Z" transform="translate(-92 -79)"/><path class="cls-6" d="M323.36,261.85a4.08,4.08,0,0,0,1.33-.19,53.07,53.07,0,0,1,6.91-1.78,3.82,3.82,0,0,0-1.4-7.52,59.44,59.44,0,0,0-7.9,2,3.83,3.83,0,0,0,1.06,7.46Z" transform="translate(-92 -79)"/><path class="cls-6" d="M301.64,274.82a3.79,3.79,0,0,0,2.76-1.05,55.56,55.56,0,0,1,5.5-4.55,3.83,3.83,0,1,0-4.49-6.2,60.89,60.89,0,0,0-6.27,5.2,3.82,3.82,0,0,0-.15,5.4,3.77,3.77,0,0,0,2.65,1.2Z" transform="translate(-92 -79)"/><g class="cls-7"><path class="cls-6" d="M193.07,152.77a7.62,7.62,0,0,0-2.43,1.62,1.58,1.58,0,0,0-.12.43.44.44,0,0,0,.3.28,1.25,1.25,0,0,0,.54-.06,4.24,4.24,0,0,1,.46-.18c.44-.18.82.23,1.29.64s1,1,1.47,1.5a53,53,0,0,1,5.9,7.67,42.5,42.5,0,0,1,4.46,9.38,31.5,31.5,0,0,1,1.64,11.76,27.83,27.83,0,0,1-10.69-5.46,33.3,33.3,0,0,1-7.28-8.25,29.23,29.23,0,0,1-4.19-10.92,18.56,18.56,0,0,1-.21-3.51,11,11,0,0,1,1-4.59,5.1,5.1,0,0,1,2.41-2.4,4.9,4.9,0,0,1,1.47-.33,6.2,6.2,0,0,1,1.18.18A5.67,5.67,0,0,1,193.07,152.77Z" transform="translate(-92 -79)"/><path class="cls-6" d="M219.66,166.82a15,15,0,0,1,5.33,5,8.9,8.9,0,0,1,1.34,4.9,8.8,8.8,0,0,1-1.64,4.8,14.89,14.89,0,0,1-5.67,4.67,14.8,14.8,0,0,1-5.35-5,8.8,8.8,0,0,1-1.33-4.9,8.9,8.9,0,0,1,1.67-4.8A14.8,14.8,0,0,1,219.66,166.82Z" transform="translate(-92 -79)"/><path class="cls-6" d="M247.63,157.32a6.76,6.76,0,0,1,2.18-2.47,6,6,0,0,1,.92-.42,5.49,5.49,0,0,1,.61-.12l.32,0,.41,0a3.62,3.62,0,0,1,.86.19,6.07,6.07,0,0,1,1,.53,4.81,4.81,0,0,1,1.37,1.7,6.66,6.66,0,0,1,.54,1.62,11.94,11.94,0,0,1,.18,1.26,8.94,8.94,0,0,1,0,1v.91a19.37,19.37,0,0,1-.36,3.16,27.94,27.94,0,0,1-3.94,9.68,30.14,30.14,0,0,1-6.59,7.37,26.36,26.36,0,0,1-9.93,5,26,26,0,0,1,.73-11.12,32.8,32.8,0,0,1,4-8.82,35.6,35.6,0,0,1,5.87-7,16.31,16.31,0,0,1,1.55-1.28l.36-.24.32-.14c.08,0,.2,0,.3.06s.2.13.38.43a3,3,0,0,0,.79.66,1.41,1.41,0,0,0,.49.16.58.58,0,0,0,.3,0,.4.4,0,0,0,.13-.07l0-.08a1.27,1.27,0,0,0,0-.2,2.31,2.31,0,0,0-.3-.4A13.94,13.94,0,0,0,247.63,157.32Z" transform="translate(-92 -79)"/></g><g class="cls-7"><path class="cls-6" d="M141.61,227.28a5.94,5.94,0,0,0,1.68,2.65,3.83,3.83,0,0,0,2,.74,28,28,0,0,0,4.29,0c3.12-.2,6.49-.54,9.93-.89,1.72-.18,3.47-.35,5.26-.49s3.61-.31,5.52-.41,3.86-.19,6-.24,4.28-.1,6.83.08A22.55,22.55,0,0,1,174,239.27a30,30,0,0,1-13.07,4.42,28.08,28.08,0,0,1-7.14-.19,23.1,23.1,0,0,1-7.22-2.31,16.81,16.81,0,0,1-3.44-2.35,14.49,14.49,0,0,1-1.55-1.58,12.66,12.66,0,0,1-1.28-2,7.35,7.35,0,0,1-.77-4.62A5.49,5.49,0,0,1,141.61,227.28Z" transform="translate(-92 -79)"/></g><g class="cls-7"><path class="cls-6" d="M142.78,219.92a25.2,25.2,0,0,1,9.14-5.77,29.78,29.78,0,0,1,18.6-.58A24.86,24.86,0,0,1,180,218.8a24.79,24.79,0,0,1-9.14,5.79,29,29,0,0,1-9.25,1.77,29.33,29.33,0,0,1-9.35-1.23A24.93,24.93,0,0,1,142.78,219.92Z" transform="translate(-92 -79)"/></g><g class="cls-7"><path class="cls-6" d="M156.32,188.65a10.16,10.16,0,0,1-2.43-1.91,3.24,3.24,0,0,1-.51-.7,2.9,2.9,0,0,1-.21-.54,2.36,2.36,0,0,1,0-1.05,2.8,2.8,0,0,1,.17-.53,2.43,2.43,0,0,1,.4-.66,2.82,2.82,0,0,1,.77-.67,3.32,3.32,0,0,1,1-.39,4.06,4.06,0,0,1,.85-.06l.51.06.25.05.16,0,.3.09c.67.21.95.33,1.29.44,1.17.43,2,.72,2.79,1.08s1.56.71,2.28,1.08a32.79,32.79,0,0,1,12.81,12.27,29.43,29.43,0,0,1,3.67,9.9,21.29,21.29,0,0,1-10.78-1.47,25.5,25.5,0,0,1-8.12-5.33,25.83,25.83,0,0,1-5.58-7.84,18.42,18.42,0,0,1-.89-2.27,8.48,8.48,0,0,1-.5-2.11c0-.12,0-.25.34-.21l.18,0h.08l.18,0a2.43,2.43,0,0,0,.38,0,2.76,2.76,0,0,0,.7-.06,2.83,2.83,0,0,0,.87-.34,2.53,2.53,0,0,0,.66-.59,1.74,1.74,0,0,0,.32-.54,1.31,1.31,0,0,0,.11-.39c0-.36,0-.45-.1-.49a.16.16,0,0,0-.18,0,1.76,1.76,0,0,0-.35.43C157.29,186.8,156.86,187.72,156.32,188.65Z" transform="translate(-92 -79)"/></g><g class="cls-7"><path class="cls-6" d="M257.19,221.45a53.83,53.83,0,0,0,8.24.46c2.54,0,5-.24,7.36-.48,4.78-.49,9.48-1.22,14.2-2s9.44-1.74,14.11-2.83a59.63,59.63,0,0,0,6.82-2,14.63,14.63,0,0,0,3.12-1.47,5.26,5.26,0,0,0,2.36-3,5.61,5.61,0,0,1,.67,1,8,8,0,0,1,.42,1.2,6.94,6.94,0,0,1,0,2.61,12.48,12.48,0,0,1-1.93,4.73,25.43,25.43,0,0,1-6.64,6.79,40.42,40.42,0,0,1-16.54,6.71,42.86,42.86,0,0,1-8.92.59,36.13,36.13,0,0,1-8.95-1.45,28.62,28.62,0,0,1-8.33-4A17.39,17.39,0,0,1,257.19,221.45Z" transform="translate(-92 -79)"/></g><g class="cls-7"><path class="cls-6" d="M261.09,208.39a31.93,31.93,0,0,1,10.13-7.31A41.48,41.48,0,0,1,282,197.7a41,41,0,0,1,11.31-.43,31.61,31.61,0,0,1,12,3.54,31.89,31.89,0,0,1-10.12,7.32,42.82,42.82,0,0,1-22.12,3.77A32.08,32.08,0,0,1,261.09,208.39Z" transform="translate(-92 -79)"/></g><g class="cls-7"><path class="cls-6" d="M254,190.93a27.24,27.24,0,0,1,3.79-6.31,38,38,0,0,1,4.76-5,43.87,43.87,0,0,1,11.41-7.24,38.36,38.36,0,0,1,13.56-3.28,24.6,24.6,0,0,1,3.81.13,18.6,18.6,0,0,1,4.1.87c.38.15.72.28,1.09.45a9.45,9.45,0,0,1,1.13.61,5.38,5.38,0,0,1,2.05,2.21,3.49,3.49,0,0,1,.35,1.49,4,4,0,0,1-.28,1.25,4.6,4.6,0,0,1-1.35,1.58l-.33-.89a3.73,3.73,0,0,0-.44-.69,1.31,1.31,0,0,0-.5-.34.63.63,0,0,0-.44.1c-.2.17-.42.36-.66.54s-.31.18-.44.26l-.52.31-4.82,2.8a102.66,102.66,0,0,1-10.73,5.44,76.62,76.62,0,0,1-11.8,4.08A50,50,0,0,1,254,190.93Z" transform="translate(-92 -79)"/></g></svg>